<?xml version="1.0" encoding="utf-8"?>
<!-- Generator: Adobe Illustrator 25.0.1, SVG Export Plug-In . SVG Version: 6.00 Build 0)  -->
<svg version="1.1" id="Layer_1" xmlns="http://www.w3.org/2000/svg" xmlns:xlink="http://www.w3.org/1999/xlink" x="0px" y="0px"
	 viewBox="0 0 430 430" style="enable-background:new 0 0 430 430;" xml:space="preserve">
<style type="text/css">
	.st0{fill:#121331;}
	.st1{fill:#08a88a;}
</style>
<g>
	<path class="st0" d="M136.4,301.8c-2,0-4-1-5.2-2.9c-1.7-2.8-0.8-6.5,2.1-8.2l38.9-23.2c2.8-1.7,6.5-0.8,8.2,2.1
		c1.7,2.8,0.8,6.5-2.1,8.2l-38.9,23.2C138.5,301.5,137.5,301.8,136.4,301.8z"/>
	<path class="st0" d="M135.5,268.1c-2,0-4-1-5.2-2.9c-1.7-2.8-0.8-6.5,2.1-8.2l37.3-22.2c2.8-1.7,6.5-0.8,8.2,2.1
		c1.7,2.8,0.8,6.5-2.1,8.2l-37.3,22.2C137.6,267.8,136.5,268.1,135.5,268.1z"/>
	<path class="st0" d="M134.5,234.4c-2,0-4-1-5.2-2.9c-1.7-2.8-0.8-6.5,2.1-8.2l42.3-25.2c2.8-1.7,6.5-0.8,8.2,2.1
		c1.7,2.8,0.8,6.5-2.1,8.2l-42.3,25.2C136.6,234.2,135.6,234.4,134.5,234.4z"/>
	<path class="st0" d="M295.6,301.8c-1,0-2.1-0.3-3.1-0.8l-38.9-23.2c-2.8-1.7-3.8-5.4-2.1-8.2c1.7-2.8,5.4-3.8,8.2-2.1l38.9,23.2
		c2.8,1.7,3.8,5.4,2.1,8.2C299.6,300.7,297.6,301.8,295.6,301.8z"/>
	<path class="st0" d="M296.5,268.1c-1,0-2.1-0.3-3.1-0.8L256.2,245c-2.8-1.7-3.8-5.4-2.1-8.2c1.7-2.8,5.4-3.8,8.2-2.1l37.3,22.2
		c2.8,1.7,3.8,5.4,2.1,8.2C300.6,267,298.6,268.1,296.5,268.1z"/>
	<path class="st0" d="M297.5,234.4c-1,0-2.1-0.3-3.1-0.8l-42.3-25.2c-2.8-1.7-3.8-5.4-2.1-8.2c1.7-2.8,5.4-3.8,8.2-2.1l42.3,25.2
		c2.8,1.7,3.8,5.4,2.1,8.2C301.5,233.4,299.5,234.4,297.5,234.4z"/>
	<path class="st0" d="M217.8,157c-3.3,0-6-2.7-6-6c0-25.3,7.3-49.3,20.6-67.4c13.7-18.7,32.1-29.3,51.8-29.9
		c3.4-0.1,6.1,2.5,6.2,5.8s-2.5,6.1-5.8,6.2c-33.5,1-60.8,39.3-60.8,85.3C223.8,154.3,221.1,157,217.8,157z"/>
	<path class="st0" d="M212,157c-3.3,0-6-2.7-6-6c0-46.1-27.3-84.3-60.8-85.3c-3.3-0.1-5.9-2.9-5.8-6.2c0.1-3.3,2.9-5.9,6.2-5.8
		c19.8,0.6,38.2,11.2,51.8,29.9c13.3,18.2,20.6,42.1,20.6,67.4C218,154.3,215.4,157,212,157z"/>
	<g>
		<path class="st0" d="M180.5,196c-0.4,0-0.7,0-1.1-0.1C153,191,130.1,181,113.1,167c-17.9-14.7-27.4-32.5-27.7-51.4
			c0-3.3,2.6-6,5.9-6.1c0,0,0,0,0.1,0c3.3,0,6,2.6,6,5.9c0.4,31.3,35,59.5,84.1,68.7c3.3,0.6,5.4,3.7,4.8,7
			C185.8,194,183.3,196,180.5,196z"/>
		<path class="st1" d="M90.9,121.1c-19.5,0-35.3-17.7-35.3-39.4s15.8-39.4,35.3-39.4c2.1,0,4.2,0.2,6.3,0.6c3,0.6,5.1,3.3,4.8,6.4
			l-1.6,19.1l12.2-8.6c1.4-1,3.2-1.3,4.9-0.9c1.7,0.4,3.1,1.5,3.9,3.1c3.1,6,4.8,12.9,4.8,19.8C126.2,103.4,110.3,121.1,90.9,121.1z
			 M89.5,54.3c-12.3,0.8-22,12.8-22,27.4c0,15.1,10.5,27.4,23.3,27.4s23.3-12.3,23.3-27.4c0-2.6-0.3-5.2-0.9-7.7L96.9,85.5
			c-1.9,1.3-4.4,1.5-6.4,0.3c-2-1.2-3.2-3.4-3-5.7L89.5,54.3z"/>
	</g>
	<g>
		<path class="st0" d="M251.4,196c-2.8,0-5.4-2-5.9-4.9c-0.6-3.3,1.5-6.4,4.8-7c49.2-9.2,83.8-37.4,84.1-68.7c0-3.3,2.7-5.9,6-5.9
			c0,0,0,0,0.1,0c3.3,0,6,2.8,5.9,6.1c-0.2,18.9-9.8,36.7-27.7,51.4c-17,14-39.9,24-66.3,28.9C252.1,196,251.7,196,251.4,196z"/>
		<path class="st1" d="M339.1,121.1c-19.5,0-35.3-17.7-35.3-39.4c0-7,1.7-13.8,4.8-19.8c0.8-1.5,2.2-2.7,3.9-3.1
			c1.7-0.4,3.5-0.1,4.9,0.9l12.2,8.6L328,49.2c-0.2-3,1.8-5.8,4.8-6.4c2.1-0.4,4.2-0.6,6.3-0.6c19.5,0,35.3,17.7,35.3,39.4
			S358.6,121.1,339.1,121.1z M316.8,73.9c-0.6,2.5-0.9,5.1-0.9,7.7c0,15.1,10.5,27.4,23.3,27.4s23.3-12.3,23.3-27.4
			c0-14.6-9.8-26.6-22-27.4l2.1,25.9c0.2,2.3-1,4.5-3,5.7c-2,1.2-4.5,1-6.4-0.3L316.8,73.9z"/>
	</g>
	<g>
		<path class="st0" d="M215.9,387.8c-12.7,0-23.4-8.8-26.3-20.7c-0.2,0-0.4,0-0.6,0c-19,0-34.4-15.4-34.4-34.4
			c0-18,14.8-30.6,29.3-33.7c3.2-0.7,6.4,1.4,7.1,4.6s-1.4,6.4-4.6,7.1c-9.9,2.1-19.8,10.3-19.8,22c0,12.4,10.1,22.4,22.4,22.4
			c1.6,0,3.1-0.2,4.6-0.5c1.8-0.4,3.6,0.1,5,1.2c1.4,1.1,2.2,2.9,2.2,4.7v0.2c0,8.3,6.8,15.1,15.1,15.1c8.3,0,15.1-6.8,15.1-15.1
			v-0.2c0-1.8,0.8-3.5,2.2-4.7c1.4-1.1,3.3-1.6,5-1.2c1.5,0.3,3,0.5,4.6,0.5c12.4,0,22.4-10.1,22.4-22.4c0-11.6-10-19.9-19.8-22
			c-3.2-0.7-5.3-3.9-4.6-7.1c0.7-3.2,3.9-5.3,7.1-4.6c14.6,3.1,29.3,15.7,29.3,33.7c0,19-15.4,34.4-34.4,34.4c-0.2,0-0.4,0-0.6,0
			C239.4,379,228.7,387.8,215.9,387.8z"/>
		<path class="st0" d="M215.9,337.9c-27.6,0-49.2-42.3-49.2-96.3c0-54,21.6-96.3,49.2-96.3s49.2,42.3,49.2,96.3
			C265.1,295.6,243.5,337.9,215.9,337.9z M215.9,157.3c-18,0-37.2,33.9-37.2,84.3c0,50.4,19.2,84.3,37.2,84.3
			c18,0,37.2-33.9,37.2-84.3C253.1,191.2,233.9,157.3,215.9,157.3z"/>
		<path class="st0" d="M216,216.6c-14.2,0-28.1-2.6-41.3-7.8c-3.1-1.2-4.6-4.7-3.4-7.8c1.2-3.1,4.7-4.6,7.8-3.4
			c12.2,4.8,25.1,7.1,38.2,7c12.3-0.1,24.3-2.5,35.8-7c3.1-1.2,6.6,0.3,7.8,3.4c1.2,3.1-0.3,6.6-3.4,7.8c-12.8,5-26.3,7.6-40,7.8
			C216.9,216.6,216.4,216.6,216,216.6z"/>
		<path class="st0" d="M215.8,273.7c-15.2,0-30-2.6-44.2-7.8c-3.1-1.1-4.7-4.6-3.6-7.7c1.1-3.1,4.6-4.7,7.7-3.6
			c13.3,4.8,27.2,7.2,41.4,7c13.3-0.1,26.4-2.5,38.8-7c3.1-1.1,6.6,0.5,7.7,3.6c1.1,3.1-0.5,6.6-3.6,7.7c-13.7,5-28.1,7.6-42.8,7.7
			C216.8,273.7,216.3,273.7,215.8,273.7z"/>
	</g>
</g>
</svg>
