<?xml version="1.0" encoding="utf-8"?>
<!-- Generator: Adobe Illustrator 24.1.2, SVG Export Plug-In . SVG Version: 6.00 Build 0)  -->
<svg version="1.1" id="Warstwa_3" xmlns="http://www.w3.org/2000/svg" xmlns:xlink="http://www.w3.org/1999/xlink" x="0px" y="0px"
	 viewBox="0 0 430 430" style="enable-background:new 0 0 430 430;" xml:space="preserve">
<style type="text/css">
	.st0{fill:#08A88A;}
	.st1{fill:#121331;}
	.st2{fill:none;}
	.st3{fill:#08A88A;fill-opacity:0;}
</style>
<g>
	<path class="st0" d="M214.99,285.35c-1.1,0-2.22-0.29-3.24-0.9l-63.39-38.09c-2.98-1.79-3.95-5.66-2.16-8.65
		c1.79-2.98,5.66-3.95,8.65-2.16l63.39,38.09c2.98,1.79,3.95,5.66,2.16,8.65C219.22,284.26,217.13,285.35,214.99,285.35z"/>
	<path class="st1" d="M371.92,317.37H58.08c-3,0-5.58-2.11-6.17-5.05c-2.21-10.88-3.33-22.08-3.33-33.28
		c0-91.76,74.66-166.42,166.42-166.42s166.42,74.66,166.42,166.42c0,11.2-1.12,22.4-3.33,33.28
		C377.49,315.26,374.91,317.37,371.92,317.37z M63.32,304.77h303.35c1.42-8.46,2.14-17.09,2.14-25.73
		c0-84.82-69-153.82-153.82-153.82s-153.82,69-153.82,153.82C61.18,287.68,61.9,296.31,63.32,304.77z M345.79,285.34h-27.48
		c-3.48,0-6.3-2.82-6.3-6.3s2.82-6.3,6.3-6.3h27.48c3.48,0,6.3,2.82,6.3,6.3S349.26,285.34,345.79,285.34z M111.69,285.34H84.21
		c-3.48,0-6.3-2.82-6.3-6.3s2.82-6.3,6.3-6.3h27.48c3.48,0,6.3,2.82,6.3,6.3S115.17,285.34,111.69,285.34z M304.47,233.69
		c-2.18,0-4.29-1.13-5.46-3.15c-1.74-3.01-0.71-6.87,2.31-8.61l23.8-13.74c3.01-1.74,6.87-0.71,8.61,2.31s0.71,6.87-2.31,8.61
		l-23.8,13.74C306.62,233.42,305.54,233.69,304.47,233.69z M125.53,233.69c-1.07,0-2.15-0.27-3.14-0.85l-23.8-13.74
		c-3.01-1.74-4.05-5.59-2.31-8.61s5.59-4.05,8.61-2.31l23.8,13.74c3.01,1.74,4.05,5.59,2.31,8.61
		C129.82,232.56,127.71,233.69,125.53,233.69z M266.65,195.88c-1.07,0-2.15-0.27-3.14-0.85c-3.01-1.74-4.05-5.59-2.31-8.61
		l13.74-23.8c1.74-3.01,5.59-4.05,8.61-2.31c3.01,1.74,4.05,5.59,2.31,8.61l-13.74,23.8C270.94,194.75,268.82,195.88,266.65,195.88z
		 M163.35,195.88c-2.18,0-4.29-1.13-5.46-3.15l-13.74-23.8c-1.74-3.01-0.71-6.87,2.31-8.61c3.01-1.74,6.87-0.71,8.61,2.31
		l13.74,23.8c1.74,3.01,0.71,6.87-2.31,8.61C165.51,195.61,164.42,195.88,163.35,195.88z M215,182.04c-3.48,0-6.3-2.82-6.3-6.3
		v-27.48c0-3.48,2.82-6.3,6.3-6.3s6.3,2.82,6.3,6.3v27.48C221.3,179.22,218.48,182.04,215,182.04z"/>
	<path class="st0" d="M215,291.65c-0.41,0-0.83-0.03-1.24-0.07c-0.41-0.04-0.82-0.1-1.22-0.18c-0.8-0.16-1.6-0.4-2.36-0.72
		c-0.76-0.31-1.49-0.7-2.17-1.16c-0.35-0.23-0.68-0.47-1-0.73c-0.32-0.26-0.63-0.54-0.92-0.83c-0.29-0.3-0.57-0.61-0.83-0.93
		c-0.26-0.31-0.51-0.65-0.74-0.99c-0.45-0.68-0.84-1.42-1.15-2.18c-0.32-0.76-0.56-1.55-0.72-2.35c-0.08-0.41-0.15-0.82-0.19-1.23
		s-0.06-0.82-0.06-1.23c0-0.42,0.02-0.83,0.06-1.24c0.04-0.41,0.11-0.82,0.19-1.23c0.16-0.8,0.4-1.59,0.72-2.35
		c0.31-0.76,0.7-1.5,1.15-2.18c0.23-0.34,0.48-0.68,0.74-0.99c0.26-0.32,0.54-0.63,0.83-0.92c0.29-0.3,0.6-0.58,0.92-0.84
		c0.32-0.26,0.65-0.5,1-0.73c0.68-0.45,1.41-0.84,2.17-1.16c0.76-0.31,1.55-0.56,2.36-0.72c0.4-0.08,0.81-0.14,1.22-0.18
		c0.82-0.09,1.66-0.09,2.48,0c0.41,0.04,0.82,0.1,1.22,0.18c0.81,0.16,1.6,0.41,2.36,0.72c0.76,0.32,1.49,0.71,2.17,1.16
		c0.35,0.23,0.68,0.47,1,0.73c0.32,0.26,0.63,0.54,0.92,0.84c0.29,0.29,0.57,0.6,0.83,0.92c0.26,0.31,0.51,0.65,0.74,0.99
		c0.45,0.68,0.84,1.42,1.15,2.18c0.32,0.76,0.56,1.55,0.72,2.35c0.08,0.41,0.15,0.82,0.19,1.23c0.04,0.41,0.06,0.82,0.06,1.24
		c0,0.41-0.02,0.82-0.06,1.23s-0.11,0.82-0.19,1.23c-0.16,0.8-0.4,1.59-0.72,2.35c-0.31,0.76-0.7,1.5-1.15,2.18
		c-0.23,0.34-0.48,0.68-0.74,0.99c-0.26,0.32-0.54,0.63-0.83,0.93c-0.29,0.29-0.6,0.57-0.92,0.83c-0.32,0.26-0.65,0.5-1,0.73
		c-0.68,0.46-1.41,0.85-2.17,1.16c-0.76,0.32-1.55,0.56-2.36,0.72c-0.4,0.08-0.81,0.14-1.22,0.18
		C215.83,291.62,215.41,291.65,215,291.65z"/>
</g>
</svg>
